<svg width="97" height="118" viewBox="0 0 97 118" fill="none" xmlns="http://www.w3.org/2000/svg">
<g filter="url(#filter0_b_215_3)">
<path d="M0 32.7329C0 26.8053 4.85535 22 10.8447 22H97V32.7329V107.267C97 113.195 92.1447 118 86.1553 118H10.8447C4.85535 118 0 113.195 0 107.267V32.7329Z" fill="#DEDEDE" fill-opacity="0.3"/>
</g>
<g filter="url(#filter1_b_215_3)">
<path d="M12 41.2733C12 36.7041 15.654 33 20.1615 33H76.8385C81.346 33 85 36.7041 85 41.2733V98.7267C85 103.296 81.346 107 76.8385 107H20.1615C15.654 107 12 103.296 12 98.7267V41.2733Z" fill="white"/>
</g>
<path d="M34.7591 46.08L34.9891 46.8C34.5558 47.0067 33.9924 47.11 33.2991 47.11C32.1124 47.11 31.2658 46.7367 30.7591 45.99C30.3124 45.3167 30.0891 44.47 30.0891 43.45C30.0891 43.05 30.1191 42.68 30.1791 42.34C30.2458 41.9934 30.3558 41.6634 30.5091 41.35C30.6624 41.03 30.8591 40.7567 31.0991 40.53C31.3391 40.3034 31.6424 40.1234 32.0091 39.99C32.3824 39.8567 32.8091 39.79 33.2891 39.79C33.9224 39.79 34.4258 39.8667 34.7991 40.02L34.9891 40.1L34.7591 40.82C34.3991 40.64 33.9358 40.55 33.3691 40.55C31.7891 40.55 30.9991 41.5167 30.9991 43.45C30.9991 45.3834 31.7891 46.35 33.3691 46.35C33.8758 46.35 34.2858 46.2834 34.5991 46.15L34.7591 46.08Z" fill="#1B365D"/>
<path d="M38.2473 43.93C38.5873 43.93 38.9873 43.9667 39.4473 44.04V43.31C39.4473 42.89 39.3306 42.5867 39.0973 42.4C38.8706 42.2067 38.5173 42.11 38.0373 42.11C37.484 42.11 37.024 42.19 36.6573 42.35L36.4673 42.43L36.2873 41.73C36.8273 41.4834 37.4506 41.36 38.1573 41.36C38.884 41.36 39.4273 41.52 39.7873 41.84C40.154 42.1534 40.3373 42.6467 40.3373 43.32V46.68L40.0673 46.8C39.9606 46.84 39.7106 46.9034 39.3173 46.99C38.9373 47.07 38.5473 47.11 38.1473 47.11C36.694 47.11 35.9673 46.5834 35.9673 45.53C35.9673 44.4634 36.7273 43.93 38.2473 43.93ZM38.1673 46.41C38.5473 46.41 38.9206 46.3667 39.2873 46.28L39.4473 46.24V44.73C39.0273 44.67 38.6473 44.64 38.3073 44.64C37.814 44.64 37.4473 44.7067 37.2073 44.84C36.974 44.9667 36.8573 45.2 36.8573 45.54C36.8573 45.86 36.964 46.0867 37.1773 46.22C37.3973 46.3467 37.7273 46.41 38.1673 46.41Z" fill="#1B365D"/>
<path d="M44.7628 41.47V42.2H43.0428V45.15C43.0428 45.5634 43.1128 45.87 43.2528 46.07C43.3994 46.2634 43.6428 46.36 43.9828 46.36C44.2161 46.36 44.4528 46.32 44.6928 46.24L44.8128 46.21L44.9328 46.91C44.6661 47.0434 44.3228 47.11 43.9028 47.11C42.7361 47.11 42.1528 46.4534 42.1528 45.14V42.2H41.4028V41.47H42.1528V40.02L43.0428 39.87V41.47H44.7628Z" fill="#1B365D"/>
<path d="M48.1594 43.93C48.4994 43.93 48.8994 43.9667 49.3594 44.04V43.31C49.3594 42.89 49.2427 42.5867 49.0094 42.4C48.7827 42.2067 48.4294 42.11 47.9494 42.11C47.3961 42.11 46.9361 42.19 46.5694 42.35L46.3794 42.43L46.1994 41.73C46.7394 41.4834 47.3627 41.36 48.0694 41.36C48.7961 41.36 49.3394 41.52 49.6994 41.84C50.0661 42.1534 50.2494 42.6467 50.2494 43.32V46.68L49.9794 46.8C49.8727 46.84 49.6227 46.9034 49.2294 46.99C48.8494 47.07 48.4594 47.11 48.0594 47.11C46.6061 47.11 45.8794 46.5834 45.8794 45.53C45.8794 44.4634 46.6394 43.93 48.1594 43.93ZM48.0794 46.41C48.4594 46.41 48.8327 46.3667 49.1994 46.28L49.3594 46.24V44.73C48.9394 44.67 48.5594 44.64 48.2194 44.64C47.7261 44.64 47.3594 44.7067 47.1194 44.84C46.8861 44.9667 46.7694 45.2 46.7694 45.54C46.7694 45.86 46.8761 46.0867 47.0894 46.22C47.3094 46.3467 47.6394 46.41 48.0794 46.41Z" fill="#1B365D"/>
<path d="M54.2049 41.44L54.1449 42.19C54.0115 42.1767 53.8615 42.17 53.6949 42.17C53.4082 42.17 53.0549 42.2234 52.6349 42.33V47H51.7449V41.8C52.2115 41.5334 52.8182 41.4 53.5649 41.4C53.8249 41.4 54.0382 41.4134 54.2049 41.44Z" fill="#1B365D"/>
<path d="M57.3489 43.93C57.6889 43.93 58.0889 43.9667 58.5489 44.04V43.31C58.5489 42.89 58.4322 42.5867 58.1989 42.4C57.9722 42.2067 57.6189 42.11 57.1389 42.11C56.5855 42.11 56.1255 42.19 55.7589 42.35L55.5689 42.43L55.3889 41.73C55.9289 41.4834 56.5522 41.36 57.2589 41.36C57.9855 41.36 58.5289 41.52 58.8889 41.84C59.2555 42.1534 59.4389 42.6467 59.4389 43.32V46.68L59.1689 46.8C59.0622 46.84 58.8122 46.9034 58.4189 46.99C58.0389 47.07 57.6489 47.11 57.2489 47.11C55.7955 47.11 55.0689 46.5834 55.0689 45.53C55.0689 44.4634 55.8289 43.93 57.3489 43.93ZM57.2689 46.41C57.6489 46.41 58.0222 46.3667 58.3889 46.28L58.5489 46.24V44.73C58.1289 44.67 57.7489 44.64 57.4089 44.64C56.9155 44.64 56.5489 44.7067 56.3089 44.84C56.0755 44.9667 55.9589 45.2 55.9589 45.54C55.9589 45.86 56.0655 46.0867 56.2789 46.22C56.4989 46.3467 56.8289 46.41 57.2689 46.41Z" fill="#1B365D"/>
<path d="M64.6243 41.61L64.4343 42.3C64.0943 42.1734 63.7143 42.11 63.2943 42.11C62.741 42.11 62.321 42.27 62.0343 42.59C61.9277 42.7167 61.8377 42.8867 61.7643 43.1C61.671 43.4134 61.6243 43.7867 61.6243 44.22C61.6243 44.7867 61.7143 45.2634 61.8943 45.65C62.1143 46.1234 62.5877 46.36 63.3143 46.36C63.7543 46.36 64.1277 46.2934 64.4343 46.16L64.6243 46.86C64.2977 47.0267 63.841 47.11 63.2543 47.11C61.5743 47.11 60.7343 46.15 60.7343 44.23C60.7343 42.3167 61.5743 41.36 63.2543 41.36C63.781 41.36 64.1877 41.42 64.4743 41.54L64.6243 41.61Z" fill="#1B365D"/>
<path d="M68.8643 41.47V42.2H67.1443V45.15C67.1443 45.5634 67.2143 45.87 67.3543 46.07C67.501 46.2634 67.7443 46.36 68.0843 46.36C68.3177 46.36 68.5543 46.32 68.7943 46.24L68.9143 46.21L69.0343 46.91C68.7677 47.0434 68.4243 47.11 68.0043 47.11C66.8377 47.11 66.2543 46.4534 66.2543 45.14V42.2H65.5043V41.47H66.2543V40.02L67.1443 39.87V41.47H68.8643Z" fill="#1B365D"/>
<path d="M23.2256 53.712C23.2256 53.952 23.3296 54.176 23.5376 54.384C23.6256 54.448 23.7616 54.52 23.9456 54.6C23.9696 54.608 24.1176 54.664 24.3896 54.768L24.9536 54.936C25.5296 55.104 26.0096 55.292 26.3936 55.5C26.7696 55.7 27.0496 55.964 27.2336 56.292C27.4256 56.62 27.5376 57.052 27.5696 57.588C27.5696 58.404 27.2776 59.036 26.6936 59.484C26.1096 59.924 25.2856 60.144 24.2216 60.144C23.7976 60.144 23.3656 60.104 22.9256 60.024C22.4936 59.952 22.1696 59.872 21.9536 59.784L21.6536 59.664L22.0136 58.356C22.6696 58.636 23.3936 58.776 24.1856 58.776C25.3136 58.776 25.8776 58.42 25.8776 57.708C25.8776 57.404 25.7576 57.156 25.5176 56.964C25.4376 56.884 25.2896 56.8 25.0736 56.712C24.9056 56.64 24.7456 56.58 24.5936 56.532L24.0176 56.364C23.3696 56.18 22.8176 55.92 22.3616 55.584C21.8416 55.176 21.5816 54.588 21.5816 53.82C21.5816 52.956 21.8736 52.328 22.4576 51.936C23.0496 51.536 23.8336 51.336 24.8096 51.336C25.6576 51.336 26.3816 51.448 26.9816 51.672L27.2696 51.792L26.9096 53.04C26.3816 52.816 25.7256 52.704 24.9416 52.704C23.7976 52.704 23.2256 53.04 23.2256 53.712Z" fill="#1B365D"/>
<path d="M33.686 53.556L33.374 54.804C33.014 54.644 32.59 54.564 32.102 54.564C31.422 54.564 30.962 54.788 30.722 55.236C30.53 55.628 30.434 56.104 30.434 56.664C30.434 57.28 30.534 57.776 30.734 58.152C30.982 58.584 31.442 58.8 32.114 58.8C32.602 58.8 33.022 58.716 33.374 58.548L33.686 59.808C33.27 60.032 32.686 60.144 31.934 60.144C29.83 60.144 28.778 58.988 28.778 56.676C28.778 54.372 29.83 53.22 31.934 53.22C32.598 53.22 33.118 53.304 33.494 53.472L33.686 53.556Z" fill="#1B365D"/>
<path d="M38.4361 53.292L38.3401 54.66C38.2921 54.652 38.1521 54.648 37.9201 54.648C37.5441 54.648 37.1521 54.704 36.7441 54.816V60H35.0881V53.784C35.7761 53.424 36.6281 53.244 37.6441 53.244C37.9721 53.244 38.2361 53.26 38.4361 53.292Z" fill="#1B365D"/>
<path d="M44.8689 57.096H40.9809C40.9809 57.616 41.1169 58.036 41.3889 58.356C41.6689 58.668 42.1049 58.824 42.6969 58.824C43.2889 58.824 43.8009 58.752 44.2329 58.608L44.4609 58.536L44.6649 59.784C44.0729 60.024 43.3609 60.144 42.5289 60.144C40.3929 60.144 39.3249 58.988 39.3249 56.676C39.3249 55.644 39.5649 54.808 40.0449 54.168C40.5329 53.536 41.2769 53.22 42.2769 53.22C43.1969 53.22 43.8809 53.464 44.3289 53.952C44.7769 54.432 45.0009 55.096 45.0009 55.944C45.0009 56.272 44.9569 56.656 44.8689 57.096ZM40.9929 56.016H43.4289V55.848C43.4289 55.408 43.3409 55.076 43.1649 54.852C42.9969 54.62 42.7009 54.504 42.2769 54.504C41.4849 54.504 41.0569 55.008 40.9929 56.016Z" fill="#1B365D"/>
<path d="M51.7361 57.096H47.8481C47.8481 57.616 47.9841 58.036 48.2561 58.356C48.5361 58.668 48.9721 58.824 49.5641 58.824C50.1561 58.824 50.6681 58.752 51.1001 58.608L51.3281 58.536L51.5321 59.784C50.9401 60.024 50.2281 60.144 49.3961 60.144C47.2601 60.144 46.1921 58.988 46.1921 56.676C46.1921 55.644 46.4321 54.808 46.9121 54.168C47.4001 53.536 48.1441 53.22 49.1441 53.22C50.0641 53.22 50.7481 53.464 51.1961 53.952C51.6441 54.432 51.8681 55.096 51.8681 55.944C51.8681 56.272 51.8241 56.656 51.7361 57.096ZM47.8601 56.016H50.2961V55.848C50.2961 55.408 50.2081 55.076 50.0321 54.852C49.8641 54.62 49.5681 54.504 49.1441 54.504C48.3521 54.504 47.9241 55.008 47.8601 56.016Z" fill="#1B365D"/>
<path d="M59.0953 60H57.4513V55.812C57.4513 55.332 57.3393 55.004 57.1153 54.828C56.8913 54.644 56.5513 54.552 56.0953 54.552C55.7193 54.552 55.3833 54.592 55.0873 54.672L54.9433 54.72V60H53.2873V53.772L53.6713 53.628C53.8393 53.572 54.1753 53.488 54.6793 53.376C55.1753 53.272 55.6793 53.22 56.1913 53.22C57.1993 53.22 57.9353 53.432 58.3993 53.856C58.8633 54.28 59.0953 54.988 59.0953 55.98V60Z" fill="#1B365D"/>
<path d="M60.717 53.364H62.373V60H60.717V53.364ZM61.557 50.784C61.845 50.784 62.073 50.86 62.241 51.012C62.409 51.164 62.493 51.372 62.493 51.636C62.493 51.916 62.409 52.132 62.241 52.284C62.081 52.428 61.853 52.5 61.557 52.5C61.261 52.5 61.029 52.428 60.861 52.284C60.693 52.132 60.609 51.916 60.609 51.636C60.609 51.364 60.693 51.156 60.861 51.012C61.029 50.86 61.261 50.784 61.557 50.784Z" fill="#1B365D"/>
<path d="M69.8648 60H68.2208V55.812C68.2208 55.332 68.1088 55.004 67.8848 54.828C67.6608 54.644 67.3208 54.552 66.8648 54.552C66.4888 54.552 66.1528 54.592 65.8568 54.672L65.7128 54.72V60H64.0568V53.772L64.4408 53.628C64.6088 53.572 64.9448 53.488 65.4488 53.376C65.9448 53.272 66.4488 53.22 66.9608 53.22C67.9688 53.22 68.7048 53.432 69.1688 53.856C69.6328 54.28 69.8648 54.988 69.8648 55.98V60Z" fill="#1B365D"/>
<path d="M71.2585 56.688C71.2585 55.52 71.5145 54.652 72.0265 54.084C72.5385 53.508 73.3425 53.22 74.4385 53.22C74.9025 53.22 75.3545 53.268 75.7945 53.364C76.2265 53.444 76.5585 53.536 76.7905 53.64L77.1265 53.772V59.412C77.1265 61.564 76.0665 62.64 73.9465 62.64C73.2425 62.64 72.6785 62.56 72.2545 62.4L72.0265 62.328L72.2305 61.056C72.6625 61.232 73.1865 61.32 73.8025 61.32C74.9465 61.32 75.5385 60.852 75.5785 59.916C75.2585 60.02 74.8345 60.072 74.3065 60.072C72.2745 60.072 71.2585 58.944 71.2585 56.688ZM72.9145 56.688C72.9145 57.408 73.0265 57.936 73.2505 58.272C73.4825 58.608 73.8785 58.776 74.4385 58.776C74.8145 58.776 75.1585 58.732 75.4705 58.644V54.708C75.2065 54.604 74.8625 54.552 74.4385 54.552C73.8785 54.552 73.4825 54.728 73.2505 55.08C73.0265 55.424 72.9145 55.96 72.9145 56.688Z" fill="#1B365D"/>
<path d="M31.2137 97.4499L31.6137 98.7899C31.207 99.0166 30.6104 99.1299 29.8237 99.1299C28.657 99.1299 27.8037 98.7999 27.2637 98.1399C26.7304 97.4799 26.4637 96.5833 26.4637 95.4499C26.4637 94.3233 26.7304 93.4266 27.2637 92.7599C27.7904 92.0999 28.6404 91.7699 29.8137 91.7699C30.507 91.7699 31.0437 91.8533 31.4237 92.0199L31.6137 92.1099L31.2137 93.4499C30.9337 93.3166 30.5437 93.2499 30.0437 93.2499C29.4037 93.2499 28.9437 93.4366 28.6637 93.8099C28.3904 94.1766 28.2537 94.7233 28.2537 95.4499C28.2537 96.1766 28.3904 96.7266 28.6637 97.0999C28.9437 97.4666 29.4037 97.6499 30.0437 97.6499C30.5037 97.6499 30.8537 97.5999 31.0937 97.4999L31.2137 97.4499Z" fill="#0054A6"/>
<path d="M32.6207 91.3999H34.3507V98.9999H32.6207V91.3999Z" fill="#0054A6"/>
<path d="M35.6383 93.4699H37.3683V98.9999H35.6383V93.4699ZM35.5583 92.0299C35.5583 91.7566 35.6416 91.5466 35.8083 91.3999C35.975 91.2533 36.205 91.1799 36.4983 91.1799C36.7916 91.1799 37.0216 91.2533 37.1883 91.3999C37.3616 91.5533 37.4483 91.7633 37.4483 92.0299C37.4483 92.2966 37.3616 92.5066 37.1883 92.6599C37.0216 92.8066 36.7916 92.8799 36.4983 92.8799C36.205 92.8799 35.975 92.8066 35.8083 92.6599C35.6416 92.5133 35.5583 92.3033 35.5583 92.0299Z" fill="#0054A6"/>
<path d="M42.7059 93.6399L42.3859 94.9299C42.0659 94.7966 41.7325 94.7299 41.3859 94.7299C40.9592 94.7299 40.6525 94.8566 40.4659 95.1099C40.2859 95.3633 40.1959 95.7366 40.1959 96.2299C40.1959 96.7299 40.2892 97.1066 40.4759 97.3599C40.6625 97.6133 40.9659 97.7399 41.3859 97.7399C41.7459 97.7399 42.0792 97.6699 42.3859 97.5299L42.7059 98.8299C42.3325 99.0299 41.8225 99.1299 41.1759 99.1299C39.3692 99.1299 38.4659 98.1633 38.4659 96.2299C38.4659 94.3033 39.3692 93.3399 41.1759 93.3399C41.7159 93.3399 42.1725 93.4133 42.5459 93.5599L42.7059 93.6399Z" fill="#0054A6"/>
<path d="M45.4933 95.8399L47.0633 93.4699H48.9433L47.1333 96.1599L48.0033 97.3199C48.23 97.6066 48.4533 97.7499 48.6733 97.7499L48.9133 97.7199V98.9599C48.7266 99.0599 48.4766 99.1099 48.1633 99.1099C47.5566 99.1099 47.0133 98.7899 46.5333 98.1499L45.4933 96.7699V98.9999H43.7633V91.3999H45.4933V95.8399Z" fill="#0054A6"/>
<path d="M51.9176 98.9999V91.3999H53.6476V93.4199C53.9876 93.3666 54.2876 93.3399 54.5476 93.3399C55.3609 93.3399 55.9609 93.5133 56.3476 93.8599C56.7476 94.2066 56.9476 94.8133 56.9476 95.6799V98.9999H55.2176V95.4899C55.2176 95.2033 55.1476 95.0033 55.0076 94.8899C54.8676 94.7699 54.6576 94.7099 54.3776 94.7099C54.1376 94.7099 53.9243 94.7333 53.7376 94.7799L53.6476 94.8099V98.9999H51.9176Z" fill="#0054A6"/>
<path d="M62.7574 96.7099H59.7174C59.724 97.0366 59.8274 97.2966 60.0274 97.4899C60.234 97.6766 60.544 97.7699 60.9574 97.7699C61.3974 97.7699 61.8074 97.7166 62.1874 97.6099L62.3874 97.5599L62.5974 98.8299C62.0774 99.0299 61.4707 99.1299 60.7774 99.1299C59.864 99.1299 59.1707 98.8899 58.6974 98.4099C58.224 97.9233 57.9874 97.1966 57.9874 96.2299C57.9874 95.3633 58.1974 94.6666 58.6174 94.1399C59.0507 93.6066 59.6907 93.3399 60.5374 93.3399C61.3174 93.3399 61.9007 93.5466 62.2874 93.9599C62.6807 94.3733 62.8774 94.9433 62.8774 95.6699C62.8774 96.0099 62.8374 96.3566 62.7574 96.7099ZM59.7174 95.6399H61.2574C61.2574 95.4333 61.244 95.2699 61.2174 95.1499C61.1907 95.0233 61.1207 94.9099 61.0074 94.8099C60.9007 94.7099 60.7407 94.6599 60.5274 94.6599C60.0207 94.6599 59.7507 94.9866 59.7174 95.6399Z" fill="#0054A6"/>
<path d="M66.9884 93.3899L66.8984 94.8099C66.8784 94.8033 66.7817 94.7999 66.6084 94.7999C66.215 94.7999 65.9117 94.8433 65.6984 94.9299V98.9999H63.9684V93.8299C64.6484 93.5099 65.4317 93.3499 66.3184 93.3499C66.5784 93.3499 66.8017 93.3633 66.9884 93.3899Z" fill="#0054A6"/>
<path d="M72.4253 96.7099H69.3853C69.392 97.0366 69.4953 97.2966 69.6953 97.4899C69.902 97.6766 70.212 97.7699 70.6253 97.7699C71.0653 97.7699 71.4753 97.7166 71.8553 97.6099L72.0553 97.5599L72.2653 98.8299C71.7453 99.0299 71.1387 99.1299 70.4453 99.1299C69.532 99.1299 68.8387 98.8899 68.3653 98.4099C67.892 97.9233 67.6553 97.1966 67.6553 96.2299C67.6553 95.3633 67.8653 94.6666 68.2853 94.1399C68.7187 93.6066 69.3587 93.3399 70.2053 93.3399C70.9853 93.3399 71.5687 93.5466 71.9553 93.9599C72.3487 94.3733 72.5453 94.9433 72.5453 95.6699C72.5453 96.0099 72.5053 96.3566 72.4253 96.7099ZM69.3853 95.6399H70.9253C70.9253 95.4333 70.912 95.2699 70.8853 95.1499C70.8587 95.0233 70.7887 94.9099 70.6753 94.8099C70.5687 94.7099 70.4087 94.6599 70.1953 94.6599C69.6887 94.6599 69.4187 94.9866 69.3853 95.6399Z" fill="#0054A6"/>
<path d="M33 9C33 4.02944 36.9927 0 41.918 0H88.082C93.0073 0 97 4.02944 97 9C97 13.9706 97 18 97 18H41.918C36.9927 18 33 13.9706 33 9Z" fill="#0054A6"/>
<path d="M51.1985 12.9999V4.47994H56.8145V5.87194H52.8905V8.30794H56.2745V9.68794H52.8905V12.9999H51.1985Z" fill="white"/>
<path d="M59.8278 12.9999H58.1358V4.61194C59.1198 4.42794 60.0638 4.33594 60.9678 4.33594C62.1998 4.33594 63.1038 4.55194 63.6798 4.98394C64.2558 5.40794 64.5438 6.08794 64.5438 7.02394C64.5438 8.31994 63.9678 9.13594 62.8158 9.47194L63.5718 10.8999C63.7238 11.2119 63.8678 11.4319 64.0038 11.5599C64.1398 11.6799 64.3118 11.7399 64.5198 11.7399L64.7838 11.7039V12.9399C64.6238 13.0439 64.3678 13.0959 64.0158 13.0959C63.5598 13.0959 63.1878 12.9799 62.8998 12.7479C62.6118 12.5079 62.3318 12.1199 62.0598 11.5839L61.0998 9.69994H60.8718C60.7678 9.69994 60.4198 9.69194 59.8278 9.67594V12.9999ZM62.8518 7.08394C62.8518 6.57194 62.7078 6.21594 62.4198 6.01594C62.1318 5.80794 61.6678 5.70394 61.0278 5.70394C60.7238 5.70394 60.3238 5.72794 59.8278 5.77594V8.40394C60.1478 8.41994 60.4998 8.42794 60.8838 8.42794C61.5958 8.42794 62.0998 8.32794 62.3958 8.12794C62.6998 7.92794 62.8518 7.57994 62.8518 7.08394Z" fill="white"/>
<path d="M67.912 7.95994H71.452V9.32794H67.912V10.3359C67.912 10.8399 68.08 11.2079 68.416 11.4399C68.752 11.6639 69.268 11.7759 69.964 11.7759C70.46 11.7759 71.016 11.7279 71.632 11.6319L71.908 11.5959V12.9399C71.212 13.0759 70.464 13.1439 69.664 13.1439C68.472 13.1439 67.6 12.9079 67.048 12.4359C66.496 11.9559 66.22 11.2359 66.22 10.2759V4.47994H71.908V5.85994H67.912V7.95994Z" fill="white"/>
<path d="M75.0487 7.95994H78.5887V9.32794H75.0487V10.3359C75.0487 10.8399 75.2167 11.2079 75.5527 11.4399C75.8887 11.6639 76.4047 11.7759 77.1007 11.7759C77.5967 11.7759 78.1527 11.7279 78.7687 11.6319L79.0447 11.5959V12.9399C78.3487 13.0759 77.6007 13.1439 76.8007 13.1439C75.6087 13.1439 74.7367 12.9079 74.1847 12.4359C73.6327 11.9559 73.3567 11.2359 73.3567 10.2759V4.47994H79.0447V5.85994H75.0487V7.95994Z" fill="white"/>
<defs>
<filter id="filter0_b_215_3" x="-6" y="16" width="109" height="108" filterUnits="userSpaceOnUse" color-interpolation-filters="sRGB">
<feFlood flood-opacity="0" result="BackgroundImageFix"/>
<feGaussianBlur in="BackgroundImage" stdDeviation="3"/>
<feComposite in2="SourceAlpha" operator="in" result="effect1_backgroundBlur_215_3"/>
<feBlend mode="normal" in="SourceGraphic" in2="effect1_backgroundBlur_215_3" result="shape"/>
</filter>
<filter id="filter1_b_215_3" x="8" y="29" width="81" height="82" filterUnits="userSpaceOnUse" color-interpolation-filters="sRGB">
<feFlood flood-opacity="0" result="BackgroundImageFix"/>
<feGaussianBlur in="BackgroundImage" stdDeviation="2"/>
<feComposite in2="SourceAlpha" operator="in" result="effect1_backgroundBlur_215_3"/>
<feBlend mode="normal" in="SourceGraphic" in2="effect1_backgroundBlur_215_3" result="shape"/>
</filter>
</defs>
</svg>
