<svg width="26" height="26" viewBox="0 0 26 26" fill="none" xmlns="http://www.w3.org/2000/svg">
<path d="M10.5625 1.625C9.27003 1.62651 8.03093 2.1406 7.11702 3.05452C6.2031 3.96843 5.68901 5.20753 5.6875 6.5H7.3125C7.3125 5.63805 7.65491 4.8114 8.2644 4.2019C8.8739 3.59241 9.70055 3.25 10.5625 3.25C11.4245 3.25 12.2511 3.59241 12.8606 4.2019C13.4701 4.8114 13.8125 5.63805 13.8125 6.5H15.4375C15.436 5.20753 14.9219 3.96843 14.008 3.05452C13.0941 2.1406 11.855 1.62651 10.5625 1.625V1.625Z" fill="#006AB7"/>
<path d="M17.0625 24.375H13.455C12.6398 24.3748 11.8545 24.0683 11.2548 23.5162L3.77976 16.6376C3.60524 16.478 3.46759 16.2823 3.37643 16.0641C3.28526 15.846 3.24276 15.6105 3.25188 15.3742C3.26101 15.1379 3.32155 14.9065 3.42927 14.696C3.537 14.4855 3.68932 14.301 3.87564 14.1554C4.19483 13.9215 4.58614 13.8074 4.981 13.8331C5.37585 13.8588 5.74907 14.0227 6.03526 14.2959L8.93751 16.9463V6.5C8.93751 6.06902 9.10872 5.6557 9.41346 5.35095C9.71821 5.0462 10.1315 4.875 10.5625 4.875C10.9935 4.875 11.4068 5.0462 11.7116 5.35095C12.0163 5.6557 12.1875 6.06902 12.1875 6.5V12.1875C12.1875 11.7565 12.3587 11.3432 12.6635 11.0385C12.9682 10.7337 13.3815 10.5625 13.8125 10.5625C14.2435 10.5625 14.6568 10.7337 14.9616 11.0385C15.2663 11.3432 15.4375 11.7565 15.4375 12.1875V13C15.4375 12.569 15.6087 12.1557 15.9135 11.851C16.2182 11.5462 16.6315 11.375 17.0625 11.375C17.4935 11.375 17.9068 11.5462 18.2116 11.851C18.5163 12.1557 18.6875 12.569 18.6875 13V13.8125C18.6875 13.3815 18.8587 12.9682 19.1635 12.6635C19.4682 12.3587 19.8815 12.1875 20.3125 12.1875C20.7435 12.1875 21.1568 12.3587 21.4616 12.6635C21.7663 12.9682 21.9375 13.3815 21.9375 13.8125V19.5C21.9375 20.7929 21.4239 22.0329 20.5097 22.9471C19.5954 23.8614 18.3554 24.375 17.0625 24.375Z" fill="#006AB7"/>
</svg>
